<mxfile host="app.diagrams.net" modified="2023-04-24T21:12:44.342Z" agent="Mozilla/5.0 (Windows NT 10.0; Win64; x64) AppleWebKit/537.36 (KHTML, like Gecko) Chrome/112.0.0.0 Safari/537.36" version="21.2.1" etag="7OvHUu4m6is-f7i5sSkU" type="github">
  <diagram name="第 1 页" id="XPSSv_8edDXsGUL4gFw3">
    <mxGraphModel>
      <root>
        <mxCell id="0" />
        <mxCell id="1" parent="0" />
      </root>
    </mxGraphModel>
  </diagram>
</mxfile>
